<?xml version="1.0" encoding="utf-8"?>
<!-- Generated by IcoMoon.io -->
<!DOCTYPE svg PUBLIC "-//W3C//DTD SVG 1.1//EN" "http://www.w3.org/Graphics/SVG/1.1/DTD/svg11.dtd">
<svg version="1.1" xmlns="http://www.w3.org/2000/svg" xmlns:xlink="http://www.w3.org/1999/xlink" width="24" height="24" viewBox="0 0 24 24">
<path d="M21.511 5.369c-0.52-0.71-1.246-1.54-2.043-2.337s-1.627-1.523-2.337-2.043c-1.209-0.886-1.795-0.989-2.131-0.989h-11.625c-1.034 0-1.875 0.841-1.875 1.875v20.25c0 1.034 0.841 1.875 1.875 1.875h17.25c1.034 0 1.875-0.841 1.875-1.875v-14.625c0-0.336-0.102-0.922-0.989-2.131v0 0zM18.407 4.093c0.72 0.72 1.284 1.369 1.701 1.907h-3.608v-3.608c0.539 0.417 1.188 0.982 1.907 1.701v0 0zM21 22.125c0 0.203-0.172 0.375-0.375 0.375h-17.25c-0.203 0-0.375-0.172-0.375-0.375v-20.25c0-0.203 0.172-0.375 0.375-0.375 0 0 11.624-0 11.625 0v5.25c0 0.414 0.336 0.75 0.75 0.75h5.25v14.625z"></path>
<path d="M6 1.5h3v1.5h-3v-1.5z"></path>
<path d="M9 3h3v1.5h-3v-1.5z"></path>
<path d="M6 4.5h3v1.5h-3v-1.5z"></path>
<path d="M9 6h3v1.5h-3v-1.5z"></path>
<path d="M6 7.5h3v1.5h-3v-1.5z"></path>
<path d="M9 9h3v1.5h-3v-1.5z"></path>
<path d="M6 10.5h3v1.5h-3v-1.5z"></path>
<path d="M9 12h3v1.5h-3v-1.5z"></path>
<path d="M6 19.875c0 0.619 0.506 1.125 1.125 1.125h3.75c0.619 0 1.125-0.506 1.125-1.125v-3.75c0-0.619-0.506-1.125-1.125-1.125h-1.875v-1.5h-3v6.375zM10.5 18v1.5h-3v-1.5h3z"></path>
</svg>
