<?xml version="1.0" encoding="utf-8"?>
<!-- Generated by IcoMoon.io -->
<!DOCTYPE svg PUBLIC "-//W3C//DTD SVG 1.1//EN" "http://www.w3.org/Graphics/SVG/1.1/DTD/svg11.dtd">
<svg version="1.1" xmlns="http://www.w3.org/2000/svg" xmlns:xlink="http://www.w3.org/1999/xlink" width="20" height="24" viewBox="0 0 20 24">
<path d="M4.862 20.571l1.219-1.219-3.147-3.147-1.219 1.219v1.433h1.714v1.714h1.433zM11.866 8.143q0-0.295-0.295-0.295-0.134 0-0.228 0.094l-7.259 7.259q-0.094 0.094-0.094 0.228 0 0.295 0.295 0.295 0.134 0 0.228-0.094l7.259-7.259q0.094-0.094 0.094-0.228zM11.143 5.571l5.571 5.571-11.143 11.143h-5.571v-5.571zM20.29 6.857q0 0.71-0.496 1.205l-2.223 2.223-5.571-5.571 2.223-2.21q0.482-0.509 1.205-0.509 0.71 0 1.219 0.509l3.147 3.134q0.496 0.522 0.496 1.219z"></path>
</svg>
