<?xml version="1.0" encoding="utf-8"?>
<!-- Generated by IcoMoon.io -->
<!DOCTYPE svg PUBLIC "-//W3C//DTD SVG 1.1//EN" "http://www.w3.org/Graphics/SVG/1.1/DTD/svg11.dtd">
<svg version="1.1" xmlns="http://www.w3.org/2000/svg" xmlns:xlink="http://www.w3.org/1999/xlink" width="24" height="24" viewBox="0 0 24 24">
<path d="M14.826 6.999c1.080 0.25 1.939 1.17 2.189 2.175 0.086 0.47 0.495 0.825 0.986 0.825 0.55 0 1-0.45 1-1 0-0.72-0.605-1.815-1.43-2.635-0.81-0.8-1.775-1.365-2.57-1.365-0.55 0-1 0.465-1 1.015 0 0.489 0.355 0.9 0.825 0.985zM1.081 20.109c-0.775 0.775-0.775 2.035 0 2.809s2.035 0.775 2.805 0l5.744-5.74c1.34 0.836 2.92 1.321 4.62 1.321 4.835 0 8.75-3.915 8.75-8.75s-3.915-8.75-8.75-8.75-8.75 3.915-8.75 8.75c0 1.695 0.485 3.28 1.321 4.62l-5.74 5.74zM8.001 9.749c0-3.45 2.8-6.25 6.25-6.25s6.25 2.8 6.25 6.25-2.8 6.25-6.25 6.25c-3.449-0.001-6.25-2.801-6.25-6.25z"></path>
</svg>
