<?xml version="1.0" encoding="utf-8"?>
<!-- Generated by IcoMoon.io -->
<!DOCTYPE svg PUBLIC "-//W3C//DTD SVG 1.1//EN" "http://www.w3.org/Graphics/SVG/1.1/DTD/svg11.dtd">
<svg version="1.1" xmlns="http://www.w3.org/2000/svg" xmlns:xlink="http://www.w3.org/1999/xlink" width="24" height="24" viewBox="0 0 24 24">
<path d="M6.716 10.899c0.395 0.394 1.915 1.999 1.915 1.999l0.843-0.869-1.321-1.365 2.536-2.694c0 0-1.145-1.116-0.644-0.672 0.479-1.779 0.042-3.764-1.309-5.162-1.34-1.387-3.243-1.842-4.953-1.364l2.898 2.993-0.762 2.937-2.837 0.784-2.897-2.994c-0.462 1.768-0.023 3.735 1.32 5.122 1.408 1.456 3.436 1.884 5.211 1.285zM16.378 13.81l-3.495 3.453 5.764 5.972c0.47 0.488 1.090 0.731 1.708 0.731 0.615 0 1.233-0.243 1.707-0.731 0.943-0.976 0.943-2.555 0-3.53l-5.683-5.894zM23.993 3.793l-3.671-3.793-10.82 11.187 1.321 1.365-6.477 6.694-1.48 0.791-2.091 3.412 0.532 0.552 3.301-2.162 0.765-1.531 6.477-6.693 1.322 1.365 10.82-11.187z"></path>
</svg>
