<?xml version="1.0" encoding="utf-8"?>
<!-- Generated by IcoMoon.io -->
<!DOCTYPE svg PUBLIC "-//W3C//DTD SVG 1.1//EN" "http://www.w3.org/Graphics/SVG/1.1/DTD/svg11.dtd">
<svg version="1.1" xmlns="http://www.w3.org/2000/svg" xmlns:xlink="http://www.w3.org/1999/xlink" width="24" height="24" viewBox="0 0 24 24">
<path d="M12 2.174l10.057 20.044h-20.114l10.057-20.044zM12 0c-0.517 0-1.035 0.349-1.427 1.046l-10.244 20.417c-0.785 1.395-0.117 2.537 1.484 2.537h20.374c1.601 0 2.269-1.142 1.484-2.537h0l-10.244-20.417c-0.392-0.698-0.91-1.046-1.427-1.046v0z"></path>
<path d="M13.5 19.5c0 0.828-0.672 1.5-1.5 1.5s-1.5-0.672-1.5-1.5c0-0.828 0.672-1.5 1.5-1.5s1.5 0.672 1.5 1.5z"></path>
<path d="M12 16.5c-0.828 0-1.5-0.672-1.5-1.5v-4.5c0-0.828 0.672-1.5 1.5-1.5s1.5 0.672 1.5 1.5v4.5c0 0.828-0.672 1.5-1.5 1.5z"></path>
</svg>
