<?xml version="1.0" encoding="utf-8"?>
<!-- Generated by IcoMoon.io -->
<!DOCTYPE svg PUBLIC "-//W3C//DTD SVG 1.1//EN" "http://www.w3.org/Graphics/SVG/1.1/DTD/svg11.dtd">
<svg version="1.1" xmlns="http://www.w3.org/2000/svg" xmlns:xlink="http://www.w3.org/1999/xlink" width="24" height="24" viewBox="0 0 24 24">
<path d="M23.28 10.8h-4.080v-4.080c0-0.72-0.48-0.72-1.2-0.72s-1.2 0-1.2 0.72v4.080h-4.080c-0.72 0-0.72 0.48-0.72 1.2s0 1.2 0.72 1.2h4.080v4.080c0 0.72 0.48 0.72 1.2 0.72s1.2 0 1.2-0.72v-4.080h4.080c0.72 0 0.72-0.48 0.72-1.2s0-1.2-0.72-1.2zM8.88 10.8h-8.16c-0.72 0-0.72 0.48-0.72 1.2s0 1.2 0.72 1.2h8.16c0.72 0 0.72-0.48 0.72-1.2s0-1.2-0.72-1.2zM8.88 16.8h-8.16c-0.72 0-0.72 0.48-0.72 1.2s0 1.2 0.72 1.2h8.16c0.72 0 0.72-0.48 0.72-1.2s0-1.2-0.72-1.2zM8.88 4.8h-8.16c-0.72 0-0.72 0.48-0.72 1.2s0 1.2 0.72 1.2h8.16c0.72 0 0.72-0.48 0.72-1.2s0-1.2-0.72-1.2z"></path>
</svg>
