<?xml version="1.0" encoding="utf-8"?>
<!-- Generated by IcoMoon.io -->
<!DOCTYPE svg PUBLIC "-//W3C//DTD SVG 1.1//EN" "http://www.w3.org/Graphics/SVG/1.1/DTD/svg11.dtd">
<svg version="1.1" xmlns="http://www.w3.org/2000/svg" xmlns:xlink="http://www.w3.org/1999/xlink" width="24" height="24" viewBox="0 0 24 24">
<path d="M3 7.5v15c0 0.825 0.675 1.5 1.5 1.5h13.5c0.825 0 1.5-0.675 1.5-1.5v-15h-16.5zM7.5 21h-1.5v-10.5h1.5v10.5zM10.5 21h-1.5v-10.5h1.5v10.5zM13.5 21h-1.5v-10.5h1.5v10.5zM16.5 21h-1.5v-10.5h1.5v10.5z"></path>
<path d="M19.875 3h-4.875v-1.875c0-0.619-0.506-1.125-1.125-1.125h-5.25c-0.619 0-1.125 0.506-1.125 1.125v1.875h-4.875c-0.619 0-1.125 0.506-1.125 1.125v1.875h19.5v-1.875c0-0.619-0.506-1.125-1.125-1.125zM13.5 3h-4.5v-1.481h4.5v1.481z"></path>
</svg>
