<?xml version="1.0" encoding="utf-8"?>
<!-- Generated by IcoMoon.io -->
<!DOCTYPE svg PUBLIC "-//W3C//DTD SVG 1.1//EN" "http://www.w3.org/Graphics/SVG/1.1/DTD/svg11.dtd">
<svg version="1.1" xmlns="http://www.w3.org/2000/svg" xmlns:xlink="http://www.w3.org/1999/xlink" width="25" height="24" viewBox="0 0 25 24">
<path d="M4.286 3.429q0 0.964-0.857 1.473v16.955q0 0.174-0.127 0.301t-0.301 0.127h-0.857q-0.174 0-0.301-0.127t-0.127-0.301v-16.955q-0.857-0.509-0.857-1.473 0-0.71 0.502-1.212t1.212-0.502 1.212 0.502 0.502 1.212zM24 4.286v10.219q0 0.335-0.167 0.516t-0.529 0.368q-2.879 1.554-4.942 1.554-0.817 0-1.654-0.295t-1.453-0.643-1.547-0.643-1.908-0.295q-2.571 0-6.214 1.955-0.228 0.121-0.442 0.121-0.348 0-0.603-0.254t-0.254-0.603v-9.937q0-0.429 0.415-0.737 0.281-0.188 1.058-0.576 3.161-1.607 5.638-1.607 1.433 0 2.679 0.388t2.933 1.179q0.509 0.254 1.179 0.254 0.723 0 1.574-0.281t1.473-0.629 1.179-0.629 0.73-0.281q0.348 0 0.603 0.254t0.254 0.603z"></path>
</svg>
