<?xml version="1.0" encoding="utf-8"?>
<!-- Generated by IcoMoon.io -->
<!DOCTYPE svg PUBLIC "-//W3C//DTD SVG 1.1//EN" "http://www.w3.org/Graphics/SVG/1.1/DTD/svg11.dtd">
<svg version="1.1" xmlns="http://www.w3.org/2000/svg" xmlns:xlink="http://www.w3.org/1999/xlink" width="32" height="24" viewBox="0 0 32 24">
<path d="M24.479 13.171c0 0-3.444-3.511-8.19-3.511-4.637 0-9.221 3.511-9.221 3.511l-2.575-1.075v3.153c0.406 0.138 0.703 0.511 0.703 0.964 0 0.457-0.303 0.831-0.715 0.966l0.761 2.123h-2.247l0.768-2.141c-0.369-0.157-0.627-0.521-0.627-0.948 0-0.418 0.25-0.773 0.608-0.935v-3.494l-3.745-1.562 16.477-7.396 15.117 7.489-7.115 2.856zM16.102 11.438c4.774 0 7.114 2.527 7.114 2.527v5.242c0 0-2.434 1.966-7.489 1.966s-6.74-1.966-6.74-1.966v-5.243c0 0 2.34-2.527 7.115-2.527zM16.008 20.050c3.309 0 5.992-0.671 5.992-1.498s-2.683-1.498-5.992-1.498-5.991 0.671-5.991 1.498 2.682 1.498 5.991 1.498z"></path>
</svg>
