<?xml version="1.0" encoding="utf-8"?>
<!-- Generated by IcoMoon.io -->
<!DOCTYPE svg PUBLIC "-//W3C//DTD SVG 1.1//EN" "http://www.w3.org/Graphics/SVG/1.1/DTD/svg11.dtd">
<svg version="1.1" xmlns="http://www.w3.org/2000/svg" xmlns:xlink="http://www.w3.org/1999/xlink" width="22" height="24" viewBox="0 0 22 24">
<path d="M18.857 13.286v6.429q0 0.348-0.254 0.603t-0.603 0.254h-5.143v-5.143h-3.429v5.143h-5.143q-0.348 0-0.603-0.254t-0.254-0.603v-6.429q0-0.013 0.007-0.040t0.007-0.040l7.701-6.348 7.701 6.348q0.013 0.027 0.013 0.080zM21.844 12.362l-0.83 0.991q-0.107 0.121-0.281 0.147h-0.040q-0.174 0-0.281-0.094l-9.268-7.728-9.268 7.728q-0.161 0.107-0.321 0.094-0.174-0.027-0.281-0.147l-0.83-0.991q-0.107-0.134-0.094-0.315t0.147-0.288l9.629-8.022q0.429-0.348 1.018-0.348t1.018 0.348l3.268 2.732v-2.612q0-0.188 0.121-0.308t0.308-0.121h2.571q0.188 0 0.308 0.121t0.121 0.308v5.464l2.933 2.438q0.134 0.107 0.147 0.288t-0.094 0.315z"></path>
</svg>
