<?xml version="1.0" encoding="utf-8"?>
<!-- Generated by IcoMoon.io -->
<!DOCTYPE svg PUBLIC "-//W3C//DTD SVG 1.1//EN" "http://www.w3.org/Graphics/SVG/1.1/DTD/svg11.dtd">
<svg version="1.1" xmlns="http://www.w3.org/2000/svg" xmlns:xlink="http://www.w3.org/1999/xlink" width="21" height="24" viewBox="0 0 21 24">
<path d="M20.571 12q0 2.089-0.817 3.991t-2.196 3.281-3.281 2.196-3.991 0.817-3.991-0.817-3.281-2.196-2.196-3.281-0.817-3.991q0-2.438 1.078-4.594t3.033-3.616q0.576-0.429 1.279-0.335t1.118 0.67q0.429 0.563 0.328 1.266t-0.663 1.132q-1.313 0.991-2.029 2.424t-0.717 3.054q0 1.393 0.542 2.658t1.467 2.19 2.19 1.467 2.658 0.542 2.658-0.542 2.19-1.467 1.467-2.19 0.542-2.658q0-1.621-0.717-3.054t-2.029-2.424q-0.563-0.429-0.663-1.132t0.328-1.266q0.415-0.576 1.125-0.67t1.272 0.335q1.955 1.46 3.033 3.616t1.078 4.594zM12 1.714v8.571q0 0.696-0.509 1.205t-1.205 0.509-1.205-0.509-0.509-1.205v-8.571q0-0.696 0.509-1.205t1.205-0.509 1.205 0.509 0.509 1.205z"></path>
</svg>
