<?xml version="1.0" encoding="iso-8859-1"?>
<!-- Generator: Adobe Illustrator 19.0.0, SVG Export Plug-In . SVG Version: 6.00 Build 0)  -->
<svg version="1.1" id="Layer_1" xmlns="http://www.w3.org/2000/svg" xmlns:xlink="http://www.w3.org/1999/xlink" x="0px" y="0px"
	 viewBox="0 0 450 450" style="enable-background:new 0 0 450 450;" xml:space="preserve">
<g id="XMLID_293_">
	<g>
		<g>
			<path d="M375,420c-8.271,0-15-6.728-15-15h-30c0,8.272-6.729,15-15,15s-15-6.728-15-15h-30c0,8.272-6.729,15-15,15
				s-15-6.728-15-15h-30c0,8.272-6.729,15-15,15s-15-6.728-15-15h-30c0,8.272-6.729,15-15,15s-15-6.728-15-15H90
				c0,8.272-6.729,15-15,15s-15-6.728-15-15H30c0,24.814,20.187,45,45,45c11.517,0,22.032-4.353,30-11.495
				c7.968,7.142,18.483,11.495,30,11.495c11.517,0,22.032-4.353,30-11.495c7.968,7.142,18.483,11.495,30,11.495
				c11.517,0,22.032-4.353,30-11.495c7.968,7.142,18.483,11.495,30,11.495c11.517,0,22.032-4.353,30-11.495
				c7.968,7.142,18.483,11.495,30,11.495c11.517,0,22.032-4.353,30-11.495c7.968,7.142,18.483,11.495,30,11.495
				c24.813,0,45-20.186,45-45h-30C390,413.272,383.271,420,375,420z"/>
			<path d="M390,175.667V120h-30V60h-90V45c0-24.813-20.187-45-45-45s-45,20.187-45,45v15H90v60H60v55.667L225,139L390,175.667z
				 M300,90h30v30h-30V90z M240,90h30v30h-30V90z M150,120h-30V90h30V120z M210,120h-30V90h30V120z"/>
			<path d="M78.743,385H210V172.968L28.313,213.342l1.818,13.64C30.763,231.717,42.447,316.174,78.743,385z"/>
			<path d="M240,385h131.257c36.296-68.826,47.98-153.283,48.612-158.018l1.818-13.64L240,172.968V385z"/>
		</g>
	</g>
</g>
</svg>
