<?xml version="1.0" encoding="utf-8"?>
<!-- Generated by IcoMoon.io -->
<!DOCTYPE svg PUBLIC "-//W3C//DTD SVG 1.1//EN" "http://www.w3.org/Graphics/SVG/1.1/DTD/svg11.dtd">
<svg version="1.1" xmlns="http://www.w3.org/2000/svg" xmlns:xlink="http://www.w3.org/1999/xlink" width="19" height="24" viewBox="0 0 19 24">
<path d="M18.857 18.817q0 1.607-0.978 2.538t-2.598 0.931h-11.705q-1.621 0-2.598-0.931t-0.978-2.538q0-0.71 0.047-1.386t0.188-1.46 0.355-1.453 0.576-1.306 0.83-1.085 1.145-0.717 1.493-0.268q0.121 0 0.563 0.288t0.998 0.643 1.446 0.643 1.788 0.288 1.788-0.288 1.446-0.643 0.998-0.643 0.563-0.288q0.817 0 1.493 0.268t1.145 0.717 0.83 1.085 0.576 1.306 0.355 1.453 0.188 1.46 0.047 1.386zM14.571 6.857q0 2.129-1.507 3.636t-3.636 1.507-3.636-1.507-1.507-3.636 1.507-3.636 3.636-1.507 3.636 1.507 1.507 3.636z"></path>
</svg>
